<?xml version="1.0" encoding="UTF-8"?>
<svg width="351px" height="116px" viewBox="0 0 351 116" version="1.1" xmlns="http://www.w3.org/2000/svg" xmlns:xlink="http://www.w3.org/1999/xlink">
    <title>logo白字</title>
    <defs>
        <polygon id="path-1" points="0 116 351 116 351 0 0 0"></polygon>
    </defs>
    <g id="logo白字" stroke="none" stroke-width="1" fill="none" fill-rule="evenodd">
        <g id="编组">
            <path d="M77.81567,84.8108307 C73.9927999,89.0874415 68.7714716,91.5273677 63.1222208,91.7021295 C56.7636212,91.8956675 50.5115203,89.3161244 45.4964429,84.4425309 C40.4673906,79.5554571 37.3085713,72.9626496 36.5876569,65.849408 C35.8243358,58.317797 37.98226,51.0909361 42.5390556,46.0093615 C46.369636,41.7380464 51.574098,39.3053419 57.2647916,39.1353944 C57.4850175,39.1286543 57.7062071,39.1257656 57.9278786,39.1257656 C64.1785339,39.1325058 70.3236542,41.8415555 75.2076562,46.7637743 C80.0950315,51.6888817 83.1531349,58.2475071 83.806584,65.2042815 C84.5048493,72.6323833 82.3103011,79.7826956 77.81567,84.8108307 M85.5616442,66.0443902 C84.1304172,49.4920816 70.8995182,36.094634 56.0499353,36.1162725 C41.2456504,36.137482 30.4251884,49.4954517 31.840031,65.9558057 C33.2553556,82.4214555 46.3836109,95.8294947 61.2033164,95.9000643 C76.0692838,95.9705559 86.9928713,82.6019946 85.5616442,66.0443902" id="Fill-7" fill="#FFFFFF"></path>
            <path d="M229.696038,40.2836232 L217.164851,40.2836232 L217.164851,38.5143398 C217.239062,38.4291253 217.307973,38.346318 217.380739,38.261585 L229.696038,38.261585 L229.696038,40.2836232 Z M217.164851,46.3324062 L229.696038,46.3324062 L229.696038,44.2097475 L217.164851,44.2097475 L217.164851,46.3324062 Z M229.696038,52.1794667 L218.022141,52.1794667 C217.280023,52.1794667 217.164851,52.0648845 217.164851,51.3234705 L217.164851,50.2580489 L229.696038,50.2580489 L229.696038,52.1794667 Z M251.311904,72.4205507 L252.127752,68.1694561 C246.365737,67.0664824 242.974163,64.6265563 241.071161,62.616554 L252.270874,62.616554 L252.270874,58.3885683 L233.424939,58.3885683 L233.424939,56.2071743 L250.835792,56.2062114 L250.835792,52.1794667 L234.230185,52.1794667 L234.230185,50.2580489 L249.700448,50.2580489 L249.700448,46.3324062 L234.230185,46.3324062 L234.230185,44.209266 L249.700448,44.209266 L249.700448,40.2836232 L234.230185,40.2836232 L234.230185,38.261585 L250.835792,38.261585 L250.835792,34.2353218 L234.839782,34.2353218 L234.839782,34.2353218 C235.846941,33.6012683 236.669054,32.7982303 237.256483,31.9027562 C237.75669,31.1103098 238.022214,30.6288721 238.047754,30.5816913 L234.067787,28.4118517 C234.059112,28.4277391 233.684198,29.1648202 232.579696,30.7559717 C230.515741,33.6234145 228.707673,34.2353218 225.569575,34.2353218 L225.569575,34.2353218 L220.549196,34.2353218 C222.053672,32.1304762 222.838678,30.7131237 222.91048,30.5816913 L218.930512,28.4118517 C218.892925,28.4802158 215.105715,35.2983361 207.666226,41.5213995 L210.576869,44.9944909 C211.334407,44.3604374 212.04472,43.7225325 212.731902,43.0860719 L212.731902,51.9276748 C212.731902,54.8283368 214.11253,56.2081371 217.015945,56.2076557 L228.891274,56.2071743 L228.891274,58.3885683 L210.044857,58.3885683 L210.044857,62.616554 L221.24457,62.616554 C219.341569,64.6265563 215.949994,67.0664824 210.188462,68.1694561 L211.003828,72.4205507 C220.7434,70.5554612 225.05973,65.2692756 226.656729,62.616554 L228.891274,62.616554 L228.891274,72.8697321 L233.424939,72.8697321 L233.424939,62.616554 L235.659003,62.616554 C237.256483,65.2692756 241.572332,70.5554612 251.311904,72.4205507 L251.311904,72.4205507 Z" id="Fill-9" fill="#FFFFFF"></path>
            <path d="M297.347876,64.7857677 C297.347876,67.0230086 296.013028,68.3570724 293.773664,68.3570724 L265.359711,68.3570724 L265.359711,35.2221246 L297.347876,35.2221246 L297.347876,64.7857677 Z M301.882023,64.7857677 L301.882023,30.6922775 L260.825564,30.6922775 L260.825564,72.8869194 L293.773664,72.8869194 C299.050892,72.8869194 301.882023,70.0579917 301.882023,64.7857677 L301.882023,64.7857677 Z" id="Fill-11" fill="#FFFFFF"></path>
            <path d="M267.918523,57.5586661 L269.493836,61.8063907 C276.117478,59.3553915 282.561373,54.5130914 286.272444,49.4570329 L286.272444,58.0319193 C286.272444,59.7963884 284.727489,61.2315541 282.827861,61.2315541 L278.754887,61.2315541 L278.754887,65.5596788 L283.230725,65.5596788 C287.630423,65.5596788 290.80659,62.4948465 290.80659,58.2331603 L290.80659,46.9699259 L294.096967,46.9699259 L294.096967,42.6418012 L290.80659,42.6418012 L290.80659,37.9891876 L286.272444,37.9891876 L286.272444,42.6418012 L268.706421,42.6418012 L268.706421,46.9699259 L282.742565,46.9699259 C279.464236,51.2056146 273.521512,55.485114 267.918523,57.5586661" id="Fill-13" fill="#FFFFFF"></path>
            <path d="M151.649734,65.7122464 C152.606295,63.1018913 152.734479,57.257238 152.734479,51.7895503 L152.734479,49.8272104 L146.675135,49.8272104 L147.903485,31.2056826 L128.118337,31.2056826 L128.118337,35.4336683 L143.062371,35.4336683 L142.128942,49.8272104 L134.392605,49.8272104 L135.252305,37.7166457 L130.906579,37.7166457 L129.718709,54.0547146 L148.190212,54.0547146 C148.135276,59.4627039 147.867825,62.6546357 147.392195,63.954036 C146.713687,65.8051638 145.526781,67.8695686 140.979141,67.8695686 L133.894326,67.8695686 L133.894326,72.1981747 L141.180573,72.1981747 C146.702122,72.1981747 150.02864,70.13714 151.649734,65.7122464" id="Fill-15" fill="#FFFFFF"></path>
            <mask id="mask-2" fill="white">
                <use xlink:href="#path-1"></use>
            </mask>
            <g id="Clip-18"></g>
            <path d="M112.459268,55.437548 L114.964638,55.437548 L114.964638,40.0118035 L112.459268,40.0118035 L112.459268,55.437548 Z M119.498784,40.0118035 L122.205586,40.0118035 L122.205586,54.808309 C122.205586,55.1549441 121.922714,55.437548 121.574786,55.437548 L119.498784,55.437548 L119.498784,40.0118035 Z M127.645213,68.506655 L127.645213,63.1107016 L143.313535,63.1107016 L143.313535,58.5808546 L127.63943,58.5808546 L127.63943,63.0428189 L123.111066,63.0428189 L123.111066,67.0069767 C123.111066,67.2611758 122.904816,67.4672311 122.650857,67.4672311 L119.498784,67.4672311 L119.498784,59.8667746 L121.574786,59.8667746 C124.691681,59.8667746 126.739733,57.8206645 126.739733,54.707207 L126.739733,35.5830584 L119.498784,35.5830584 L119.498784,29.54583 L114.964638,29.54583 L114.964638,35.5830584 L107.925121,35.5830584 L107.925121,59.8667746 L114.964638,59.8667746 L114.964638,67.4672311 L107.835489,67.4672311 L107.835489,72.1983191 L123.950045,72.1983191 C126.256393,72.1983191 127.645213,70.8108157 127.645213,68.506655 L127.645213,68.506655 Z" id="Fill-17" fill="#FFFFFF" mask="url(#mask-2)"></path>
            <path d="M189.300306,42.9134765 L193.02246,42.4378161 C192.977162,35.8324912 192.072645,29.4938828 192.033612,29.2209077 L187.545727,29.8694042 C187.547173,29.8795144 187.573195,30.0634236 187.612711,30.3643221 C187.881126,31.7306423 188.903224,37.1891826 189.300306,42.9134765" id="Fill-19" fill="#FFFFFF" mask="url(#mask-2)"></path>
            <path d="M163.426853,55.437548 L165.932705,55.437548 L165.932705,40.0118035 L163.426853,40.0118035 L163.426853,55.437548 Z M170.466852,40.0118035 L173.173654,40.0118035 L173.173654,54.808309 C173.173654,55.1549441 172.890782,55.437548 172.542854,55.437548 L170.466852,55.437548 L170.466852,40.0118035 Z M204.692936,69.5407832 C200.551533,66.0676918 196.952262,62.7939156 193.949095,59.3617465 C195.495013,57.310822 196.867931,55.1703501 198.05291,52.8729295 C201.126433,46.9165826 201.383765,40.541385 201.383765,34.5219697 L196.648187,34.5219697 C196.648187,39.9607711 196.431816,45.6898794 193.844042,50.7054971 C192.979523,52.3809002 191.994048,53.9725332 190.89822,55.5131337 C189.80191,53.9725332 188.816435,52.3809002 187.951916,50.7054971 C185.364624,45.6903609 185.148253,39.9607711 185.148253,34.5219697 L180.412675,34.5219697 C180.412675,40.2775571 180.670007,46.9165826 183.742567,52.8729295 C184.928027,55.1703501 186.301427,57.310822 187.846863,59.3617465 C185.215719,62.3692876 182.124846,65.2559879 178.61328,68.2611218 L178.61328,67.7700554 L178.61328,63.0428189 L174.079134,63.0428189 L174.079134,67.0069767 C174.079134,67.2611758 173.872883,67.4672311 173.618924,67.4672311 L170.466852,67.4672311 L170.466852,59.8667746 L172.542854,59.8667746 C175.659748,59.8667746 177.707318,57.8206645 177.707318,54.707207 L177.707318,35.5830584 L170.466852,35.5830584 L170.466852,29.54583 L165.932705,29.54583 L165.932705,35.5830584 L158.893188,35.5830584 L158.893188,59.8667746 L165.932705,59.8667746 L165.932705,67.4672311 L158.803556,67.4672311 L158.803556,72.1983191 L174.918112,72.1983191 C176.36476,72.1983191 177.449023,71.6514059 178.057656,70.6764946 L180.147633,73.1640831 C184.233617,69.7372097 187.826142,66.4769138 190.89822,63.0553363 C193.969816,66.4773953 197.562341,69.7376912 201.648325,73.1640831 L204.692936,69.5407832 Z" id="Fill-20" fill="#FFFFFF" mask="url(#mask-2)"></path>
            <path d="M119.992293,100.153912 C117.843524,100.153912 115.320324,100.515472 113.810066,101.018574 C115.600305,95.525852 118.514804,88.7457652 119.015492,87.6211268 C119.160061,87.2966378 119.306075,87.1974617 119.458353,87.1974617 C119.60003,87.1974617 119.745081,87.2812318 119.870855,87.557577 C120.410577,88.7457652 123.324112,95.525852 125.031465,100.618981 C123.849859,100.43459 122.228766,100.153912 119.992293,100.153912 L119.992293,100.153912 Z M116.038347,82.9844006 C111.79141,91.9487701 108.148768,101.689217 105.102712,112.001131 C105.102712,112.001131 106.141195,112.25196 107.713617,112.25196 C109.204118,112.25196 110.250311,112.000649 110.259467,111.998723 C111.212172,108.62866 112.746525,104.080518 112.746525,104.080518 C112.746525,104.080518 116.755406,103.609672 119.440523,103.836429 C122.596451,104.103627 124.219472,104.547031 125.720574,105.215748 C126.375469,105.507981 126.720505,105.71548 126.894951,106.249395 C127.248662,107.333592 127.876571,109.403293 128.617725,111.993909 C128.617725,111.993909 129.698614,112.25196 131.212245,112.25196 C132.778403,112.25196 133.767251,112.009315 133.765326,112.003538 C130.788178,101.689217 127.181197,91.9487701 122.860048,82.9844006 L116.038347,82.9844006 Z" id="Fill-21" fill="#FFFFFF" mask="url(#mask-2)"></path>
            <path d="M277.939714,107.603631 C272.409974,107.603631 267.927872,103.125297 267.927872,97.6012816 C267.927872,92.0767843 272.409974,87.5989325 277.939714,87.5989325 C283.468973,87.5989325 287.951557,92.0767843 287.951557,97.6012816 C287.951557,103.125297 283.468973,107.603631 277.939714,107.603631 M277.937787,82.5804262 C269.634261,82.5804262 262.902674,89.3056291 262.902674,97.6012816 C262.902674,105.896934 269.634261,112.621656 277.937787,112.621656 C286.240831,112.621656 292.972417,105.896934 292.972417,97.6012816 C292.972417,89.3056291 286.240831,82.5804262 277.937787,82.5804262" id="Fill-22" fill="#FFFFFF" mask="url(#mask-2)"></path>
            <path d="M247.003959,96.7388342 L240.370197,96.7388342 L240.370197,87.3450223 L247.901728,87.3450223 C252.263357,87.3450223 254.29647,88.1995742 254.29647,91.7434369 C254.29647,95.5126124 251.366069,96.7388342 247.003959,96.7388342 M253.874812,101.93788 C252.354435,100.737655 251.014286,100.508491 251.056211,100.210481 C251.091871,99.9553193 251.804593,100.070383 253.073903,99.6905285 C257.005682,98.5557799 259.333715,95.6084185 259.333715,91.7434369 C259.333715,84.9455369 254.622713,83.0944091 247.818361,83.0944091 L235.320423,83.0944091 L235.320423,112.028332 C235.320423,112.028332 236.359388,112.281087 237.845551,112.281087 C239.30762,112.281087 240.365378,112.029776 240.370197,112.028332 L240.370197,101.044331 L243.619131,101.044331 C245.93608,101.04722 247.677165,101.337045 248.924791,102.28307 C250.265422,103.300348 251.327035,104.693629 252.733204,106.884652 C253.555316,108.166239 255.601441,112.023517 255.606742,112.031702 C255.606742,112.031702 256.812924,112.281087 258.563165,112.281087 C260.285457,112.281087 261.445859,111.887271 261.445859,111.887271 C258.153555,106.643933 256.38211,103.91707 253.874812,101.93788" id="Fill-23" fill="#FFFFFF" mask="url(#mask-2)"></path>
            <path d="M316.944169,83.1317687 L316.944169,100.296947 C316.944169,104.949561 314.190623,107.895478 309.638647,107.895478 C305.087152,107.895478 302.333606,104.949561 302.333606,100.296947 L302.333606,83.1317687 C302.330715,83.1308058 301.287895,82.8790139 299.792094,82.8790139 C298.320388,82.8790139 297.270821,83.1317687 297.270821,83.1317687 L297.270821,100.470265 C297.270821,108.922385 302.695991,112.622233 309.638647,112.622233 C316.581785,112.622233 322.006954,108.922385 322.006954,100.470265 L322.006954,83.1317687 C322.006954,83.1317687 320.956906,82.8790139 319.4852,82.8790139 C317.989881,82.8790139 316.947061,83.1308058 316.944169,83.1317687" id="Fill-24" fill="#FFFFFF" mask="url(#mask-2)"></path>
            <path d="M339.929724,98.1595567 L332.956227,98.1595567 L332.956227,87.6435137 L339.929724,87.6435137 C344.292316,87.6435137 346.170741,89.0777165 346.170741,92.9239221 C346.170741,96.7701276 343.830661,98.1595567 339.929724,98.1595567 M340.776413,83.1319612 L327.874166,83.1319612 L327.874166,112.012926 C327.877057,112.013889 328.919877,112.265681 330.415196,112.265681 C331.886902,112.265681 332.951408,112.01437 332.956227,112.012926 L332.956227,102.670628 L340.949895,102.670628 C346.952374,102.670628 351.000289,98.7969802 351.000289,92.7920081 C351.000289,86.7865546 347.010202,83.1319612 340.776413,83.1319612" id="Fill-25" fill="#FFFFFF" mask="url(#mask-2)"></path>
            <path d="M216.257057,87.2060313 C220.334368,87.2060313 223.395363,88.6955994 225.927719,92.1927627 L229.657101,89.4504937 C226.310343,84.8354322 222.659509,82.5803781 215.85082,82.5803781 C207.537656,82.5803781 201.121229,88.988795 201.121229,97.6618946 C201.121229,106.381212 207.286589,112.622089 214.922691,112.622089 C217.070014,112.622089 219.021687,112.154613 220.658683,111.465676 C222.156411,110.858101 222.998763,110.398328 223.967371,109.741166 C224.370717,109.467709 224.841528,109.144665 225.145604,109.254432 C225.403417,109.34735 225.421729,109.629954 225.421729,109.941925 C225.421729,110.861471 225.428476,111.957705 225.428476,111.957705 C225.430404,111.958668 226.221675,112.210941 227.357018,112.210941 C228.462003,112.210941 229.28026,111.892229 229.28026,111.892229 L229.276405,96.4669663 L216.302837,96.4669663 L216.302837,100.585666 L224.82418,100.585666 C224.801531,103.676495 222.004615,107.996436 215.613246,107.996436 C209.579925,107.996436 206.051493,103.209982 206.051493,97.6618946 C206.051493,91.3983905 210.999587,87.2060313 216.257057,87.2060313" id="Fill-26" fill="#FFFFFF" mask="url(#mask-2)"></path>
            <path d="M157.201834,83.0590716 L157.201834,104.041088 C152.229646,96.0458528 147.252156,88.8074374 142.404296,83.0590716 C142.404296,83.0590716 141.379306,82.8067982 139.912901,82.8067982 C138.470108,82.8067982 137.427288,83.0581087 137.422469,83.0590716 L137.422469,111.99829 C137.428734,112.000216 138.444568,112.251045 139.900372,112.251045 C141.333044,112.251045 142.3696,112.000697 142.377792,111.99829 L142.378274,89.5767748 C147.67285,96.8580381 152.646966,104.366059 157.116539,111.99829 C157.116539,111.99829 158.162732,112.251045 159.641667,112.251045 C161.096989,112.251045 162.157639,111.99829 162.157639,111.99829 L162.158121,83.0590716 C162.155711,83.0585901 161.138432,82.8067982 159.679737,82.8067982 C158.244654,82.8067982 157.201834,83.0590716 157.201834,83.0590716" id="Fill-27" fill="#FFFFFF" mask="url(#mask-2)"></path>
            <path d="M166.461729,87.7463488 L176.967032,87.7463488 L176.967032,111.99829 C176.969923,111.999253 178.074426,112.251526 179.657931,112.251526 C181.216861,112.251526 182.34353,111.999734 182.348831,111.99829 L182.348831,87.7463488 L192.854134,87.7463488 L192.854134,83.0812177 L166.461729,83.0812177 L166.461729,87.7463488 Z" id="Fill-28" fill="#FFFFFF" mask="url(#mask-2)"></path>
        </g>
        <g id="编组">
            <path d="M33.1646813,25.1432965 C31.26974,25.798914 30.5364948,28.4108406 29.065657,29.6875695 L29.065657,29.6875695 C26.9973066,31.4838081 24.4802178,32.4643589 22.1505461,33.8412515 L22.1505461,33.8412515 C20.130016,35.0350697 18.1901525,36.3352819 16.365734,37.8104214 L16.365734,37.8104214 C12.7439471,40.7400924 9.59070286,44.2348022 7.05719092,48.1306464 L7.05719092,48.1306464 C2.14135658,55.6889387 -0.320183336,64.6691735 0.0333973591,73.6556386 L0.0333973591,73.6556386 C0.967584605,97.3800789 20.6811574,115.989936 44.4493155,116 L44.4493155,116 L44.4923055,116 C45.7617181,116 47.0417575,115.945844 48.3319406,115.837054 L48.3319406,115.837054 C71.0712368,113.919565 88.8391498,94.8985091 88.9990339,72.3031878 L88.9990339,72.3031878 C89,72.2456775 89,72.1881672 89,72.1306569 L89,72.1306569 L89,71.8565244 C88.9763313,64.3595764 87.0301884,56.9191801 83.3204893,50.382175 L83.3204893,50.382175 C79.6624748,43.9352693 74.3573153,38.4459103 68.0281243,34.5352093 L68.0281243,34.5352093 C61.5487097,30.531054 54.0597547,28.2373512 46.4336181,27.9167312 L46.4336181,27.9167312 C45.2062293,27.8654512 43.9764254,27.9133764 42.766909,27.8683267 L42.766909,27.8683267 C41.1646861,27.8079408 39.5982077,27.5831714 38.1225396,26.7454379 L38.1225396,26.7454379 C36.9627756,26.0869448 35.49387,25 34.0375233,25 L34.0375233,25 C33.7452879,25 33.4535355,25.043612 33.1646813,25.1432965" id="Clip-4" fill="#1677FF"></path>
            <path d="M63.9414094,0 C63.5195545,0.00238450799 63.0660964,0.0600896014 62.5839082,0.180745706 L62.5839082,0.180745706 C59.9153528,0.845546534 57.6116708,2.72263122 56.0224128,4.91065576 L56.0224128,4.91065576 C53.8125827,7.95281105 52.6073515,11.5453108 51.7507131,15.164517 L51.7507131,15.164517 C50.6920058,19.6326081 49.9613015,24.1545891 49.145843,28.6627399 L49.145843,28.6627399 C48.987827,29.5369005 48.9035518,30.4563668 49.1836711,31.3000057 L49.1836711,31.3000057 C49.5011397,32.2566703 50.1863546,32.8012919 50.9271145,32.9548542 L50.9271145,32.9548542 C52.0260441,33.1823363 53.2461193,32.5471034 53.5650243,31.1178293 L53.5650243,31.1178293 C54.818618,25.497544 56.1742039,18.4608609 60.5124618,14.2946485 L60.5124618,14.2946485 C62.886054,12.0150589 66.1143691,10.4040853 67.4498438,7.23268964 L67.4498438,7.23268964 C68.8561864,3.89294775 67.5164021,0.0209836703 64.0017428,0 L64.0017428,0 L63.9414094,0 Z" id="Fill-1" fill="#1677FF"></path>
            <path d="M14.5343696,7.96946537 C13.6136277,8.74093461 12.9937453,9.83349155 12.5974118,11.0362584 L12.5974118,11.0362584 C12.1046729,12.5329183 11.9584346,14.2013338 12.0096646,15.6354937 L12.0096646,15.6354937 C12.031088,16.2285279 12.0702091,16.821085 12.1279592,17.4117336 L12.1279592,17.4117336 C12.1903666,18.0639281 12.2751289,18.7142142 12.3789859,19.3606835 L12.3789859,19.3606835 C12.95509,22.9570565 14.1240643,26.4231814 15.5082043,29.7709858 L15.5082043,29.7709858 C16.8518261,33.0224162 18.27369,36.3468427 19.9400605,39.4384449 L19.9400605,39.4384449 C20.6614713,40.7767078 21.7792157,42.6574325 23.5289512,41.7709824 L23.5289512,41.7709824 C24.5600704,41.2490359 25.1366402,40.1240363 24.9722386,38.7585786 L24.9722386,38.7585786 C24.874436,37.9441705 24.3435074,37.2180257 24.0258817,36.5047625 L24.0258817,36.5047625 C22.3874549,32.8268055 21.0214782,28.5243259 21.139307,24.360682 L21.139307,24.360682 C21.2785594,19.4188896 23.9332021,12.8430327 20.4286079,8.54961787 L20.4286079,8.54961787 C19.5958884,7.5291029 18.3961762,7 17.1880809,7 L17.1880809,7 C16.2533672,7 15.3130648,7.3172709 14.5343696,7.96946537" id="Clip-6" fill="#1677FF"></path>
            <path d="M56.346879,36 C71.2041669,35.9782833 84.4419309,49.4241827 85.8739006,66.0363528 C87.3058702,82.6538379 76.3766149,96.0707466 61.5029341,96 C46.6755391,95.9291752 33.540472,82.4726458 32.1244131,65.9474479 C30.7088363,49.427565 41.5349127,36.0212862 56.346879,36 Z M58.2257968,39.020377 C58.0040102,39.020377 57.7827058,39.023276 57.5623657,39.0300405 C51.8687193,39.2006027 46.6615569,41.6421051 42.828989,45.9288673 C38.269829,51.0288195 36.1107852,58.2818164 36.8745023,65.8406654 C37.5957907,72.9796321 40.756249,79.5962825 45.7879108,84.5010304 C50.8055903,89.3922493 57.0609353,91.9811213 63.4228341,91.7868834 C69.0750161,91.6114895 74.2990535,89.1627394 78.1239072,84.8706622 C82.6208705,79.8243428 84.8165573,72.6481714 84.1179297,65.1932058 C83.4641415,58.2112723 80.4044515,51.6289276 75.5145402,46.6860085 C70.628004,41.7459885 64.4796952,39.0271415 58.2257968,39.020377 Z" id="形状结合" fill="#FFFFFF"></path>
        </g>
    </g>
</svg>