<?xml version="1.0" encoding="UTF-8"?>
<svg width="64px" height="64px" viewBox="0 0 64 64" version="1.1" xmlns="http://www.w3.org/2000/svg" xmlns:xlink="http://www.w3.org/1999/xlink">
    <title>公众号</title>
    <g id="控件" stroke="none" stroke-width="1" fill="none" fill-rule="evenodd">
        <g id="mobile-foot" transform="translate(-32.000000, -958.000000)" fill="#FFFFFF" fill-rule="nonzero">
            <g id="公众号" transform="translate(32.000000, 958.000000)">
                <g id="Oval">
                    <path d="M32,64 C14.3609756,64 0,49.6390244 0,32 C0,14.3609756 14.3609756,0 32,0 C49.6390244,0 64,14.3609756 64,32 C64,49.6390244 49.6390244,64 32,64 Z M32,1.56097561 C15.1414634,1.56097561 1.56097561,15.1414634 1.56097561,32 C1.56097561,48.8585366 15.1414634,62.4390244 32,62.4390244 C48.8585366,62.4390244 62.4390244,48.8585366 62.4390244,32 C62.4390244,15.1414634 48.8585366,1.56097561 32,1.56097561 Z" id="形状"></path>
                </g>
                <g id="微信公众号" transform="translate(17.170732, 20.292683)">
                    <path d="M15.2096714,4.61429944 C14.3191603,4.61429944 13.5125379,5.17283912 13.5125379,5.96621936 C13.5125379,6.75959959 14.3191603,7.31813928 15.2096714,7.31813928 C16.0162938,7.31813928 16.5841559,6.75959959 16.5841559,5.96621936 C16.5841559,5.17283912 16.0162938,4.61429944 15.2096714,4.61429944 L15.2096714,4.61429944 Z M7.44673772,7.31813928 C8.25336009,7.31813928 8.82122223,6.75959959 8.82122223,5.96621936 C8.82122223,5.17283912 8.25336009,4.61429944 7.44673772,4.61429944 C6.64011535,4.61429944 5.82704,5.17283912 5.82704,5.96621936 C5.82704,6.75959959 6.63366237,7.31813928 7.44673772,7.31813928 Z M21.1141471,7.55932687 C15.8549693,7.55932687 11.7315157,11.3802461 11.7315157,16.1532216 C11.7315157,16.9466018 11.8928402,17.7463291 12.0541647,18.4571978 L11.0023291,18.4571978 C9.6278446,18.4571978 8.57600903,18.2160102 7.20152452,17.8986581 L3.31683118,19.8091177 L4.4461025,16.5467382 C1.61324474,14.6362786 0,12.2497908 0,9.22859888 C0,4.05575975 4.93007592,0 10.9958761,0 C16.4938142,0 21.1851299,3.26237952 22.1595297,7.63549137 C21.8368808,7.55932687 21.4367961,7.55932687 21.1141471,7.55932687 Z M18.7652628,14.6362786 C19.5718852,14.6362786 20.1397473,14.1602504 20.1397473,13.6017107 C20.1397473,13.043171 19.5718852,12.4909784 18.7652628,12.4909784 C18.1974007,12.4909784 17.6359915,13.0495181 17.6359915,13.6017107 C17.6359915,14.1602504 18.1974007,14.6362786 18.7652628,14.6362786 Z M24.831063,14.6362786 C25.6376854,14.6362786 26.2055475,14.1602504 26.2055475,13.6017107 C26.2055475,13.043171 25.6376854,12.4909784 24.831063,12.4909784 C24.2632009,12.4909784 23.7792275,13.0495181 23.7792275,13.6017107 C23.7792275,14.1602504 24.2632009,14.6362786 24.831063,14.6362786 Z M31.2195122,15.9881985 C31.2195122,18.4571978 29.5223787,20.6024979 27.3348189,22.2717699 L28.1414412,24.9756098 L25.147259,23.3825022 C24.0179877,23.6236898 22.8822634,23.8585304 21.8304278,23.8585304 C16.57125,23.8585304 12.4477964,20.3613103 12.4477964,15.9818514 C12.4477964,11.6849041 16.57125,8.10517247 21.8304278,8.10517247 C26.7734097,8.11151951 31.2195122,11.6912511 31.2195122,15.9881985 Z" id="形状"></path>
                </g>
            </g>
        </g>
    </g>
</svg>