<?xml version="1.0" encoding="UTF-8"?>
<svg width="30px" height="30px" viewBox="0 0 30 30" version="1.1" xmlns="http://www.w3.org/2000/svg" xmlns:xlink="http://www.w3.org/1999/xlink">
    <title>编组 5</title>
    <g id="页面-1" stroke="none" stroke-width="1" fill="none" fill-rule="evenodd">
        <g id="编组-5">
            <rect id="矩形" stroke="#979797" stroke-width="1.25" fill="#D8D8D8" opacity="0" x="0.625" y="0.625" width="28.75" height="28.75"></rect>
            <g id="编组" transform="translate(3.750000, 1.250000)" fill="#FFFFFF">
                <path d="M4.9071133,6.74651906 C4.49692675,3.99714471 4.69664484,2.51508161 4.88286523,1.57471629 C5.29567966,-0.510166272 7.2371975,-0.532742749 7.32905349,1.5543424 C7.4234179,3.69649212 5.94512179,5.09595835 5.95646941,6.63239772 C5.96280019,7.4868623 6.54057316,10.1255569 6.79523761,11.2487366 C6.86200939,11.5429191 6.7271519,11.8475638 6.48144609,11.9583813 L6.48144609,11.9583813 C6.18831918,12.0905363 5.86150776,11.8964337 5.78661348,11.544158 C5.58044516,10.5752968 5.19498447,8.67639484 4.9071133,6.74651906" id="Fill-1"></path>
                <path d="M16.1645328,5.51451702 C16.9411595,2.8327805 17.8380407,1.74632345 18.4302219,0.980389923 C19.7818113,-0.768020881 21.8496934,-0.033239749 21.2154988,2.04344806 C20.6220778,3.9862498 17.7982313,4.40853781 17.2692767,5.96754206 C16.9171912,7.004986 16.6195165,8.64941704 16.4762579,9.51753042 C16.423638,9.83666939 16.120591,10.0491979 15.8041825,9.99021608 L15.8041825,9.99021608 C15.5034772,9.93414177 15.2990583,9.65293949 15.3381789,9.3480614 C15.4289553,8.64249429 15.6505928,7.28923429 16.1645328,5.51451702" id="Fill-3"></path>
                <g transform="translate(0.000000, 5.333382)">
                    <path d="M11.33336,0 C12.0109572,0 12.2793838,0.834627019 15.1565064,2.21245767 C19.3468401,4.21914233 22.66672,7.45794596 22.66672,12.1931119 C22.66672,17.9774285 17.5926044,22.6667197 11.33336,22.6667197 C5.07411563,22.6667197 0,17.9774285 0,12.1931119 C0,7.56308642 3.23364748,4.1462202 7.09344598,2.35976039 C10.2127389,0.916034642 10.5299461,0 11.33336,0 Z M11.3333866,6 C8.01967815,6 5.33338665,8.6862915 5.33338665,12 C5.33338665,15.3137085 8.01967815,18 11.3333866,18 C14.6470951,18 17.3333866,15.3137085 17.3333866,12 C17.3333866,8.6862915 14.6470951,6 11.3333866,6 Z" id="形状结合"></path>
                    <circle id="椭圆形备份-4" cx="9.33338665" cy="10.6666667" r="1.33333333"></circle>
                </g>
            </g>
        </g>
    </g>
</svg>