<?xml version="1.0" encoding="UTF-8"?>
<svg width="248px" height="47px" viewBox="0 0 248 47" version="1.1" xmlns="http://www.w3.org/2000/svg" xmlns:xlink="http://www.w3.org/1999/xlink">
    <title>了解蚂蚁</title>
    <g id="页面-1" stroke="none" stroke-width="1" fill="none" fill-rule="evenodd">
        <g id="了解蚂蚁" transform="translate(0.136000, 0.312000)" fill="#FFFFFF">
            <g id="了解" fill-rule="nonzero">
                <path d="M7.92,37.344 L9.936,43.488 L14.544,43.104 C20.304,42.576 21.888,41.616 21.888,36.624 L21.936,18.624 L37.344,8.64 L37.344,2.448 L0,2.448 L0,8.64 L26.88,8.64 L15.456,15.504 L15.552,34.416 C15.552,36.672 15.168,36.816 12.528,36.96 L7.92,37.344 Z" id="路径"></path>
                <path d="M86.784,29.856 L79.344,29.856 L79.344,26.304 L85.2,26.304 L85.2,20.976 L79.344,20.976 L79.344,18.336 L74.16,18.096 L74.16,20.976 L72.48,20.976 L72.864,18.96 L69.36,18.048 C72.624,15.168 74.448,12.528 75.168,8.88 C75.312,8.352 75.36,7.872 75.408,7.344 L79.872,7.344 C79.824,7.92 79.68,9.168 79.536,10.176 C79.392,11.616 79.104,11.856 77.088,12.096 L75.072,12.288 L76.656,17.328 L79.152,17.136 C83.328,16.752 84.576,15.984 84.816,11.952 C84.96,10.944 85.344,4.512 85.488,2.208 L66.528,2.208 L66.528,7.344 L69.936,7.344 C69.168,10.32 68.736,11.856 65.52,14.448 L65.52,11.472 L61.776,11.472 L64.368,8.256 L64.368,3.648 L56.256,3.648 L57.456,0.96 L52.176,0 C49.92,4.8 46.656,9.216 43.008,13.248 L46.896,16.176 L46.896,23.808 C46.896,33.264 45.936,35.808 43.104,41.472 L47.904,43.776 C49.68,40.368 50.928,37.344 51.456,32.736 L53.904,32.736 L53.904,41.04 L58.32,41.04 L58.32,39.168 L59.664,43.536 L61.728,43.296 C64.752,42.912 65.52,42.336 65.52,38.88 L65.52,28.272 L69.888,29.808 C70.416,28.608 70.848,27.408 71.184,26.304 L74.16,26.304 L74.16,29.856 L66.72,29.856 L66.72,35.136 L74.16,35.136 L74.16,43.152 L79.344,43.152 L79.344,35.136 L86.784,35.136 L86.784,29.856 Z M57.888,8.592 L55.68,11.472 L51.792,11.472 C52.512,10.56 53.04,9.6 53.664,8.592 L57.888,8.592 Z M51.792,16.464 L53.904,16.464 L53.904,19.584 L51.792,19.584 L51.792,16.464 Z M58.32,16.464 L60.624,16.464 L60.624,19.584 L58.32,19.584 L58.32,16.464 Z M65.52,16.56 L67.872,19.296 C68.064,19.152 68.208,19.056 68.256,18.96 C67.536,21.696 66.672,24.672 65.52,27.312 L65.52,16.56 Z M51.792,27.696 L51.792,26.016 L51.792,24.72 L53.904,24.72 L53.904,27.696 L51.792,27.696 Z M60.624,24.72 L60.624,27.696 L58.32,27.696 L58.32,24.72 L60.624,24.72 Z M58.32,38.688 L58.32,32.736 L60.624,32.736 L60.624,37.152 C60.624,38.064 60.528,38.304 59.424,38.496 L58.32,38.688 Z" id="形状"></path>
            </g>
            <g id="蚂蚁" transform="translate(155.976000, 0.336000)" fill-rule="nonzero">
                <path d="M13.68,29.088 C14.016,30.24 14.352,31.824 14.736,33.504 C14.016,33.552 13.296,33.6 12.48,33.744 L12.48,26.496 L18.768,26.496 L18.768,6.912 L12.48,6.912 L12.48,0.72 L7.824,0.48 L7.824,6.912 L1.584,6.912 L1.584,26.496 L7.824,26.496 L7.824,34.272 C4.272,34.656 0.816,35.04 0,35.04 L0.432,40.8 C2.448,40.416 12.144,39.12 15.936,38.736 L16.416,41.136 L20.88,39.456 C20.256,36.528 18.72,30.72 17.808,27.936 L13.68,29.088 Z M37.68,19.056 L39.216,1.728 L20.448,1.728 L20.448,7.44 L33.024,7.44 L32.016,19.056 L26.496,19.056 L27.504,9.12 L22.128,8.544 L20.688,24.768 L36.24,24.768 C36.24,25.92 35.76,33.072 35.616,34.224 C35.376,36.912 34.752,37.344 31.824,37.584 L28.656,37.872 L30.384,43.392 L33.504,43.104 C39.312,42.576 40.896,41.712 41.136,35.568 L41.952,19.056 L37.68,19.056 Z M6.048,20.88 L6.048,12.528 L7.824,12.528 L7.824,20.88 L6.048,20.88 Z M14.16,12.528 L14.16,20.88 L12.48,20.88 L12.48,12.528 L14.16,12.528 Z M34.368,28.176 L19.632,28.176 L19.632,33.888 L34.368,33.888 L34.368,28.176 Z" id="形状"></path>
                <path d="M68.592,36.192 C67.776,33.36 66.624,30.336 65.424,27.504 L61.104,29.28 L62.304,32.4 L60.048,32.784 L60.048,26.208 L66.336,26.208 L66.336,6.816 L60.048,6.816 L60.048,0.24 L55.056,0 L55.056,6.816 L48.768,6.816 L48.768,26.208 L55.056,26.208 L55.056,33.648 C51.504,34.272 48.096,34.8 47.328,34.8 L47.904,40.512 C49.536,40.128 59.568,38.208 63.936,37.44 L64.272,38.64 L68.592,36.192 Z M81.216,10.224 C80.448,7.68 78.288,2.736 76.992,0.192 L72.288,1.872 C73.584,4.32 75.456,9.696 76.464,12.72 L81.216,10.224 Z M81.36,29.712 C84.816,23.616 86.736,15.984 88.464,5.088 L83.184,3.936 C81.888,12.72 80.448,19.2 77.952,24.576 C75.216,19.536 73.344,13.344 71.664,4.848 L66.624,6.048 C68.544,16.032 71.088,23.616 74.88,29.808 C72.384,33.312 69.072,36.384 64.512,39.648 L68.016,43.68 C72.24,40.656 75.456,37.776 78.144,34.512 C80.88,37.968 84.096,40.8 87.936,43.488 L91.152,38.4 C87.12,35.664 84,32.976 81.36,29.712 Z M53.424,12.24 L55.2,12.24 L55.2,20.832 L53.424,20.832 L53.424,12.24 Z M61.728,20.832 L59.904,20.832 L59.904,12.24 L61.728,12.24 L61.728,20.832 Z" id="形状"></path>
            </g>
            <path d="M103.417943,38.688 L101.864,41.5805924 C108.054488,44.9223324 115.066195,46.688 122.141111,46.688 L122.141111,46.688 C128.998586,46.688 135.818641,45.0242271 141.864,41.8751238 L141.864,41.8751238 L140.352534,38.9592122 C134.693006,41.9075678 128.565221,43.4020232 122.141111,43.4020232 L122.141111,43.4020232 C115.606257,43.4020232 109.13259,41.7722152 103.417943,38.688 Z" id="Fill-1"></path>
        </g>
    </g>
</svg>