<?xml version="1.0" encoding="UTF-8"?>
<svg width="451px" height="101px" viewBox="0 0 451 101" version="1.1" xmlns="http://www.w3.org/2000/svg" xmlns:xlink="http://www.w3.org/1999/xlink">
    <title>招聘logo（黑字）_中</title>
    <defs>
        <linearGradient x1="31.844746%" y1="95.5297914%" x2="61.0843499%" y2="-0.263956129%" id="linearGradient-1">
            <stop stop-color="#0066FF" offset="0%"></stop>
            <stop stop-color="#1677FF" offset="20%"></stop>
            <stop stop-color="#048BFF" offset="100%"></stop>
        </linearGradient>
        <linearGradient x1="5.28799067%" y1="66.0259237%" x2="93.3176791%" y2="32.9402876%" id="linearGradient-2">
            <stop stop-color="#0066FF" offset="0%"></stop>
            <stop stop-color="#1677FF" offset="20%"></stop>
            <stop stop-color="#048BFF" offset="100%"></stop>
        </linearGradient>
        <linearGradient x1="56.0472368%" y1="99.1847471%" x2="46.0511649%" y2="1.29858962%" id="linearGradient-3">
            <stop stop-color="#0066FF" offset="0%"></stop>
            <stop stop-color="#1677FF" offset="20%"></stop>
            <stop stop-color="#048BFF" offset="100%"></stop>
        </linearGradient>
        <linearGradient x1="-3.83955049%" y1="50.8407234%" x2="96.7223349%" y2="48.3777151%" id="linearGradient-4">
            <stop stop-color="#1677FF" offset="6%"></stop>
            <stop stop-color="#115EF4" offset="11%"></stop>
            <stop stop-color="#0A41E8" offset="18%"></stop>
            <stop stop-color="#062FE0" offset="25%"></stop>
            <stop stop-color="#0529DD" offset="29%"></stop>
            <stop stop-color="#FF6464" offset="76%"></stop>
            <stop stop-color="#FF80B0" offset="100%"></stop>
        </linearGradient>
    </defs>
    <g id="页面-1" stroke="none" stroke-width="1" fill="none" fill-rule="evenodd">
        <g id="招聘logo（黑字）_中">
            <rect id="矩形" stroke="#979797" stroke-width="0.682352941" fill="#D8D8D8" opacity="0" x="0.341176471" y="0.341176471" width="450.317647" height="100.317647"></rect>
            <g id="编组-46" transform="translate(0.031001, 0.000000)" fill-rule="nonzero">
                <path d="M242.477555,79.1798418 L243.309961,74.82643 C237.414892,73.6937241 233.948811,71.1963123 231.997434,69.1356065 L243.473712,69.1356065 L243.473712,64.8094888 L224.178281,64.8094888 L224.178281,62.5781947 L241.986299,62.5781947 L241.986299,58.4840771 L225.003864,58.4840771 L225.003864,56.5189006 L240.82639,56.5189006 L240.82639,52.4998418 L225.003864,52.4998418 L225.003864,50.3231359 L240.82639,50.3231359 L240.82639,46.3040771 L225.003864,46.3040771 L225.003864,44.2570182 L241.986299,44.2570182 L241.986299,40.1629006 L225.61111,40.1629006 C226.596911,39.5541571 227.439465,38.7394697 228.081035,37.7746653 C228.592759,36.9626653 228.865679,36.4713712 228.892971,36.4099594 L224.799174,34.1854888 C224.344024,35.0179178 223.835799,35.8202019 223.277646,36.5873712 C221.16934,39.5283123 219.320309,40.1492535 216.106678,40.1492535 L210.975785,40.1492535 C211.870314,38.9215723 212.697127,37.6459471 213.452532,36.3280771 L209.358735,34.1036065 C206.292666,39.1909259 202.397617,43.7297393 197.834696,47.5323123 L200.809522,51.0873712 C201.587343,50.4050182 202.317404,49.7840771 203.020172,49.1358418 L203.020172,58.1838418 C203.020172,61.1589006 204.432532,62.5713712 207.400535,62.5713712 L219.545467,62.5713712 L219.545467,64.8026653 L200.263682,64.8026653 L200.263682,69.1287829 L211.719492,69.1287829 C209.768115,71.1758418 206.302033,73.6869006 200.406965,74.8196065 L201.239371,79.1798418 C211.207767,77.2692535 215.622245,71.8581947 217.252941,69.1356065 L219.538644,69.1356065 L219.538644,79.6370182 L224.178281,79.6370182 L224.178281,69.1287829 L226.463985,69.1287829 C228.094681,71.8513712 232.509159,77.26243 242.477555,79.1798418 Z M220.364227,58.4499594 L208.423985,58.4499594 C207.659809,58.4499594 207.543818,58.3339594 207.543818,57.5765476 L207.543818,56.4847829 L220.364227,56.4847829 L220.364227,58.4499594 Z M220.364227,52.4657241 L207.543818,52.4657241 L207.543818,50.2890182 L220.364227,50.2890182 L220.364227,52.4657241 Z M220.364227,46.2699594 L207.543818,46.2699594 L207.543818,44.4480771 L207.768977,44.1956065 L220.364227,44.1956065 L220.364227,46.2699594 Z" id="形状" fill="#000000"></path>
                <path d="M294.202684,71.3532535 L294.202684,36.4440771 L252.207147,36.4440771 L252.207147,79.6506653 L285.912744,79.6506653 C291.309734,79.6506653 294.202684,76.7506653 294.202684,71.3532535 Z M289.56987,71.3532535 C289.56987,73.6459594 288.205271,75.0106653 285.912744,75.0106653 L256.846784,75.0106653 L256.846784,41.0772535 L289.597162,41.0772535 L289.56987,71.3532535 Z" id="形状" fill="#000000"></path>
                <path d="M259.459991,63.9497241 L261.077041,68.3031359 C267.852275,65.7920771 274.443289,60.8313712 278.236874,55.6591359 L278.236874,64.4341947 C278.166523,66.3107949 276.592976,67.7777242 274.716209,67.7163123 L270.547358,67.7163123 L270.547358,72.1447829 L275.125588,72.1447829 C279.628765,72.1447829 282.876511,69.0059594 282.876511,64.6389006 L282.876511,53.1071359 L286.240248,53.1071359 L286.240248,48.6786653 L282.876511,48.6786653 L282.876511,43.9021947 L278.270989,43.9021947 L278.270989,48.6786653 L260.306042,48.6786653 L260.306042,53.1071359 L274.634333,53.1071359 C271.270596,57.4469006 265.19813,61.8276065 259.459991,63.9497241 Z" id="路径" fill="#000000"></path>
                <path d="M140.528357,72.3017241 C141.504045,69.6269006 141.633682,63.6426653 141.633682,58.0473712 L141.633682,56.03443 L135.438402,56.03443 L136.693833,36.9694888 L116.456829,36.9694888 L116.456829,41.2956065 L131.740339,41.2956065 L130.785119,56.03443 L122.870445,56.03443 L123.750611,43.6360771 L119.295195,43.6360771 L118.080702,60.3673712 L136.973576,60.3673712 C136.918992,65.9012535 136.646073,69.1697241 136.154817,70.5003123 C135.472517,72.3972535 134.251201,74.5125476 129.597918,74.5125476 L122.365543,74.5125476 L122.365543,78.9410182 L129.816254,78.9410182 C135.465694,78.9410182 138.870369,76.8325476 140.528357,72.3017241 Z" id="路径" fill="#000000"></path>
                <path d="M115.972396,75.1607829 L115.972396,69.6269006 L131.999613,69.6269006 L131.999613,64.9869006 L115.965573,64.9869006 L115.965573,69.5518418 L111.332759,69.5518418 L111.332759,73.6459594 C111.332759,73.9059881 111.121981,74.1167829 110.861973,74.1167829 L107.634696,74.1167829 L107.634696,66.3379594 L109.743001,66.3379594 C112.92934,66.3379594 115.024,64.2431359 115.024,61.0565476 L115.024,41.4730182 L107.634696,41.4730182 L107.634696,35.2909006 L103.001882,35.2909006 L103.001882,41.4730182 L95.7967987,41.4730182 L95.7967987,66.3379594 L103.001882,66.3379594 L103.001882,74.1167829 L95.7080998,74.1167829 L95.7080998,78.9614888 L112.192457,78.9614888 C114.553213,78.9410182 115.972396,77.5217241 115.972396,75.1607829 Z M107.634696,45.9833712 L110.425301,45.9833712 L110.425301,61.13843 C110.425301,61.4926719 110.138154,61.7798418 109.783939,61.7798418 L107.655165,61.7798418 L107.634696,45.9833712 Z M103.001882,61.7798418 L100.436436,61.7798418 L100.436436,45.9833712 L103.001882,45.9833712 L103.001882,61.7798418 Z" id="形状" fill="#000000"></path>
                <path d="M179.044166,48.95843 L182.851398,48.4671359 C182.786517,43.9403695 182.447018,39.4217119 181.834771,34.9360771 L177.242896,35.61843 C177.242896,35.61843 177.27701,35.8163123 177.317948,36.1233712 C178.135443,40.3656595 178.711774,44.6508889 179.044166,48.95843 L179.044166,48.95843 Z" id="路径" fill="#000000"></path>
                <path d="M194.784817,76.2252535 C190.862896,73.0323348 187.188437,69.546914 183.792971,65.7989006 C185.380029,63.7068362 186.786095,61.4834338 187.995936,59.1527829 C191.141337,53.0525476 191.407434,46.5292535 191.407434,40.3607829 L186.563107,40.3607829 C186.563107,45.9356065 186.344771,51.7970182 183.697449,56.9351359 C182.808136,58.643379 181.800421,60.2873132 180.681685,61.8549006 C179.562949,60.2873132 178.555235,58.643379 177.665921,56.9351359 C175.025422,51.7970182 174.800263,45.9356065 174.800263,40.3607829 L169.955936,40.3607829 C169.955936,46.2563123 170.222033,53.0525476 173.367434,59.1527829 C174.577275,61.4834338 175.983342,63.7068362 177.570399,65.7989006 C174.641833,69.0591012 171.483824,72.1056208 168.120551,74.9151359 L168.120551,69.5654888 L163.487737,69.5654888 L163.487737,73.6596065 C163.48775,73.7856679 163.437214,73.9064695 163.347443,73.9949649 C163.257672,74.0834602 163.136165,74.132257 163.010127,74.13043 L159.789673,74.13043 L159.789673,66.3516065 L161.911625,66.3516065 C165.097964,66.3516065 167.192623,64.2567829 167.192623,61.0701947 L167.192623,41.4866653 L159.776027,41.4866653 L159.776027,35.3045476 L155.13639,35.3045476 L155.13639,41.4866653 L147.951776,41.4866653 L147.951776,66.3516065 L155.150036,66.3516065 L155.150036,74.13043 L147.842608,74.13043 L147.842608,78.9751359 L164.326965,78.9751359 C165.599232,79.0682906 166.824454,78.4751433 167.540596,77.4193712 L169.676194,79.9645476 C173.59385,76.7694423 177.278528,73.2988242 180.702154,69.5791359 C184.119916,73.2844319 187.795298,76.7434835 191.700823,79.93043 L194.784817,76.2252535 Z M159.776027,45.9833712 L162.546163,45.9833712 L162.546163,61.13843 C162.525655,61.4864318 162.246151,61.7630153 161.897979,61.7798418 L159.776027,61.7798418 L159.776027,45.9833712 Z M155.13639,61.7798418 L152.570944,61.7798418 L152.570944,45.9833712 L155.13639,45.9833712 L155.13639,61.7798418 Z" id="形状" fill="#000000"></path>
                <path d="M43.8874492,28.54243 C43.1615183,28.3748171 42.5839792,27.8259813 42.3795672,27.1094888 C42.1918048,26.359097 42.1918048,25.5739983 42.3795672,24.8236065 C43.0618668,20.9137241 43.7100513,16.9901947 44.6243327,13.1212535 C45.3680392,9.98243 46.4051346,6.86407705 48.3155733,4.25066529 C49.6720433,2.27109466 51.6737295,0.823979351 53.9786595,0.156547642 C57.9087049,-0.826040593 59.5462238,3.00878294 58.1816247,6.29772411 C57.0285385,9.02713588 54.2379333,10.4396065 52.1910347,12.4389006 C48.4452102,16.0485476 47.278478,22.1487829 46.1936217,27.0207829 C46.0935073,27.530543 45.7929289,27.9787585 45.3593364,28.2648493 C44.9257439,28.5509401 44.3954486,28.6509476 43.8874492,28.54243 L43.8874492,28.54243 Z" id="路径" fill="url(#linearGradient-1)"></path>
                <path d="M36.6346051,23.5612535 C35.2512242,23.5713564 33.8869004,23.2384541 32.6636217,22.5923123 C31.4695975,21.9099594 29.8934855,20.6953712 28.4197185,21.2276065 C26.7958456,21.7939594 26.16813,24.0457241 24.9126988,25.1511359 C23.13872,26.7000771 20.9826535,27.5461947 18.9903388,28.7334888 C17.2590592,29.7463797 15.6055976,30.8867873 14.0436671,32.1452535 C-0.219412761,43.7693468 -4.14698578,63.9221155 4.70707967,80.0522143 C13.5611451,96.1823132 32.6706951,103.687663 50.1341114,97.8938564 C67.5975277,92.1000502 78.4323219,74.6601193 75.8904763,56.4358266 C73.3486307,38.211534 58.1553592,24.4024535 39.773183,23.6090182 C38.7224417,23.55443 37.6717004,23.5953712 36.6346051,23.5612535 Z" id="路径" fill="url(#linearGradient-2)"></path>
                <path d="M10.4547715,9.34101823 C10.7647949,8.30922719 11.3609804,7.38648694 12.1741663,6.67984176 C13.7635363,5.38995115 16.0939318,5.61480482 17.4074038,7.18478294 C20.5186898,10.9036065 18.1579333,16.6080771 18.0351194,20.88643 C17.9327745,24.4960771 19.1472677,28.2217241 20.6005657,31.4083123 C20.9755298,32.0160397 21.2583461,32.675996 21.4397942,33.3666653 C21.6291132,34.4226991 21.1092704,35.4790581 20.157071,35.9732535 C18.601428,36.7443123 17.6120937,35.1134888 16.9707321,33.9261947 C15.5151416,31.2037282 14.2033248,28.4067888 13.0406867,25.5469006 C11.7582075,22.6610922 10.8237082,19.6328946 10.2569046,16.5261947 C10.1682057,15.9666653 10.0931527,15.4003123 10.0385687,14.8407829 C9.98398478,14.2812535 9.9498698,13.81043 9.92940082,13.2986653 C9.87450299,11.9589985 10.0522586,10.619955 10.4547715,9.34101823 Z" id="路径" fill="url(#linearGradient-3)"></path>
                <path d="M73.4378426,56.6621947 C72.2097034,42.4487829 60.8562389,30.9443123 48.1177064,30.9579473 C35.3791739,30.9716065 26.134015,42.4487829 27.3485082,56.5871359 C28.5630014,70.7254888 39.8277669,82.2436065 52.5390075,82.2983892 C65.250248,82.3527829 74.6659818,70.9097241 73.4378426,56.6621947 Z M66.792245,72.7793712 C63.5886877,76.4110022 59.0237161,78.5528529 54.1833494,78.6953712 C48.724953,78.8659594 43.3689016,76.6483123 39.0635914,72.4586653 C34.7223427,68.1975794 32.0173612,62.5456578 31.4218365,56.4916065 C30.739537,50.0297241 32.6158607,43.8203123 36.5254371,39.4327829 C39.7393442,35.8014028 44.3143466,33.6644229 49.1616247,33.53043 L49.7006414,33.53043 C55.0635158,33.53043 60.3376913,35.8640771 64.5270105,40.0878418 C68.7577755,44.3698129 71.3738777,49.9858302 71.9299606,55.9798418 C72.5303842,62.3461947 70.6472374,68.4873712 66.792245,72.8066653 L66.792245,72.7793712 Z" id="形状" fill="#FFFFFF"></path>
                <path d="M322.920672,97.5419596 C315.189643,97.5425755 307.578629,95.6297102 300.766405,91.9739594 L302.458508,88.8214888 C308.754663,92.192888 315.785638,93.957801 322.927495,93.9596065 C329.85632,93.9820108 336.686707,92.3193593 342.830172,89.1149006 L344.481337,92.2946653 C337.817319,95.7425704 330.423693,97.5419596 322.920672,97.5419596 L322.920672,97.5419596 Z" id="路径" fill="url(#linearGradient-4)"></path>
                <path d="M444.103894,50.6370182 L444.103894,38.0680771 L433.9581,38.0680771 L433.9581,35.3045476 L429.639144,35.3045476 L429.639144,38.0680771 L419.506995,38.0680771 L419.506995,55.9047829 L438.843365,55.9047829 C442.02288,55.9047829 444.103894,53.8167829 444.103894,50.6370182 Z M429.639144,51.3807829 L424.126163,51.3807829 L424.126163,49.1563123 L429.639144,49.1563123 L429.639144,51.3807829 Z M429.639144,44.8301947 L424.126163,44.8301947 L424.126163,42.6057241 L429.639144,42.6057241 L429.639144,44.8301947 Z M433.9581,42.6057241 L439.477903,42.6057241 L439.477903,44.8301947 L433.9581,44.8301947 L433.9581,42.6057241 Z M433.9581,49.1494888 L439.477903,49.1494888 L439.477903,50.7393712 C439.45622,51.1001475 439.157002,51.3814341 438.795604,51.3807841 L433.923985,51.3807841 L433.9581,49.1494888 Z" id="形状" fill="#000000"></path>
                <path d="M360.761004,57.6789006 L360.761004,48.5694888 L365.161837,48.5694888 L365.161837,43.9226653 L360.761004,43.9226653 L360.761004,35.3045476 L356.114545,35.3045476 L356.114545,43.9226653 L350.942714,43.9226653 L350.942714,48.5694888 L356.114545,48.5694888 L356.114545,58.8525476 L354.975104,59.0981947 C352.812215,59.5690182 349.516708,59.97843 349.516708,59.9852535 L351.072351,64.5160771 C351.181519,64.5160771 353.323939,64.0452535 356.094076,63.3356065 L356.094076,72.5337241 L356.094076,72.5337241 L356.094076,73.6527829 C356.094076,74.4238418 355.978085,74.5466653 355.19344,74.5466653 L351.195165,74.5466653 L351.195165,78.7636065 L356.251004,78.7636065 C359.287237,78.7636065 360.733712,77.3170182 360.733712,74.2805476 L360.733712,61.9981947 C362.496222,61.4722707 364.221716,60.8294338 365.89872,60.0739594 L364.493183,56.1845476 C363.196814,56.7440771 361.879976,57.3445476 360.761004,57.6789006 Z" id="路径" fill="#000000"></path>
                <path d="M416.204666,66.8974888 L416.204666,41.3229006 L418.074166,41.3229006 L418.074166,37.0036065 L400.70282,37.0036065 L400.70282,41.3229006 L402.831594,41.3229006 L402.831594,68.0916065 C401.405588,68.0916065 400.286617,68.0916065 400.279794,68.0916065 L401.084908,73.3320771 C401.214545,73.3320771 403.984681,73.0796065 407.280188,72.73843 L411.878886,72.15843 L411.878886,78.9205476 L416.204666,78.9205476 L416.204666,71.4146653 C417.221292,71.2031359 418.190157,70.9711359 419.070324,70.7323123 L418.142396,66.47443 C417.460097,66.6313712 416.818735,66.7541947 416.204666,66.8974888 Z M411.878886,67.51843 L408.010248,67.9073712 L407.150551,67.9619594 L407.150551,61.5819594 L411.878886,61.5819594 L411.878886,67.51843 Z M411.878886,57.2831359 L407.150551,57.2831359 L407.150551,51.4967829 L411.878886,51.4967829 L411.878886,57.2831359 Z M411.878886,47.1706653 L407.150551,47.1706653 L407.150551,41.3774888 L411.878886,41.3774888 L411.878886,47.1706653 Z" id="形状" fill="#000000"></path>
                <path d="M367.85692,78.9205476 L384.450445,78.9205476 C389.745089,78.9205476 392.583455,76.0751359 392.583455,70.7869006 L392.583455,60.2991359 L367.85692,60.2991359 L367.85692,78.9205476 Z M372.428327,64.85043 L388.059809,64.85043 L388.059809,70.7869006 C388.059809,73.0318418 386.69521,74.3692535 384.470914,74.3692535 L372.428327,74.3692535 L372.428327,64.85043 Z" id="形状" fill="#000000"></path>
                <path d="M367.215558,41.3229006 L375.089295,41.3229006 C374.989422,42.3671161 374.836848,43.405617 374.632154,44.43443 C373.322139,50.9918418 365.666738,54.9017241 365.666738,54.9017241 L368.846254,58.35443 C372.469265,56.1299594 377.873077,51.6946653 379.176269,45.3897241 C379.462835,44.0250182 379.660702,42.6603123 379.803985,41.3433712 L388.032517,41.3433712 L388.032517,50.35043 C387.962191,52.1893524 386.419179,53.6257472 384.580082,53.5643123 L380.486284,53.5643123 L380.486284,57.9109006 L384.968992,57.9109006 C389.38347,57.9109006 392.569809,54.8334888 392.569809,50.5551359 L392.569809,37.0036065 L367.201912,37.0036065 L367.215558,41.3229006 Z" id="路径" fill="#000000"></path>
                <path d="M445.18875,62.4553712 L445.18875,58.1292535 L418.415316,58.1292535 L418.415316,62.4553712 L422.324892,62.4553712 L421.779053,65.4781947 L421.144514,69.0059594 L439.12993,69.0059594 C439.062501,69.508446 438.95062,70.0039578 438.795604,70.4866653 C438.113304,72.3836065 436.885165,74.4920771 432.238705,74.4920771 L427.305679,74.4920771 L427.305679,78.9205476 L432.470687,78.9205476 C438.113304,78.9205476 441.511156,76.8052535 443.169144,72.2880771 C443.70816,70.8141947 443.987903,68.3372535 444.131186,65.4645476 L444.131186,64.6730182 L426.329991,64.6730182 L426.725725,62.4485476 L445.18875,62.4553712 Z" id="路径" fill="#000000"></path>
            </g>
        </g>
    </g>
</svg>