<?xml version="1.0" encoding="UTF-8"?>
<svg width="64px" height="64px" viewBox="0 0 64 64" version="1.1" xmlns="http://www.w3.org/2000/svg" xmlns:xlink="http://www.w3.org/1999/xlink">
    <title>脉脉</title>
    <defs>
        <polygon id="path-1" points="2.21562622e-16 0 10.0392157 0 10.0392157 32 2.21562622e-16 32"></polygon>
    </defs>
    <g id="控件" stroke="none" stroke-width="1" fill="none" fill-rule="evenodd">
        <g id="mobile-foot" transform="translate(-240.000000, -958.000000)">
            <g id="Oval" transform="translate(240.000000, 958.000000)">
                <path d="M32,64 C14.3609756,64 0,49.6390244 0,32 C0,14.3609756 14.3609756,0 32,0 C49.6390244,0 64,14.3609756 64,32 C64,49.6390244 49.6390244,64 32,64 Z M32,1.56097561 C15.1414634,1.56097561 1.56097561,15.1414634 1.56097561,32 C1.56097561,48.8585366 15.1414634,62.4390244 32,62.4390244 C48.8585366,62.4390244 62.4390244,48.8585366 62.4390244,32 C62.4390244,15.1414634 48.8585366,1.56097561 32,1.56097561 Z" id="形状" fill="#FFFFFF" fill-rule="nonzero"></path>
                <g id="编组" transform="translate(16.000000, 16.000000)">
                    <g transform="translate(0.000000, -0.000000)">
                        <mask id="mask-2" fill="white">
                            <use xlink:href="#path-1"></use>
                        </mask>
                        <g id="Clip-2"></g>
                        <path d="M6.85775113,12.858639 L3.18010677,12.858639 C3.17282401,12.9408065 3.16187439,13.0067133 3.16187439,13.0725693 C3.1608049,15.1047539 3.16375875,17.1369893 3.15636891,19.1692248 C3.15566112,19.3770572 3.22797951,19.4234511 3.42104921,19.4224348 C4.49879681,19.4165911 5.57659534,19.4227397 6.65439387,19.4232988 C6.71942949,19.4232988 6.78456696,19.4110015 6.85775113,19.4035825 L6.85775113,12.858639 Z M3.18423198,9.69907775 L6.85352406,9.69907775 L6.85352406,3.15347369 L3.18423198,3.15347369 L3.18423198,9.69907775 Z M0.00120461346,15.9811056 C0.00120461346,10.7817374 0.00105182814,5.58231847 0.00151018408,0.382899519 C0.00156111252,0.00183949498 0.00359825004,0.00148379153 0.392029445,0.00143297675 C3.24295247,0.00102645853 6.09387549,0.00102645853 8.94479851,-4.08623124e-05 C9.22984497,-4.08623124e-05 9.49345057,0.0364951739 9.71880891,0.246512653 C9.95603357,0.467506125 10.0392157,0.738755413 10.0392157,1.04272942 C10.0394034,11.1874426 10.0376209,21.3321558 10.0360421,31.4769198 C10.0359403,31.9982286 10.035431,31.9987876 9.51545165,31.9991941 C8.75162694,32 7.9877513,32.0006169 7.22392659,31.9991941 C6.87236759,31.9984827 6.87038138,31.9960944 6.87033045,31.65218 C6.86992302,28.7137646 6.86778403,25.7752984 6.87547422,22.8369338 C6.87603443,22.6180238 6.82897656,22.5447489 6.59781238,22.5473912 C5.53702395,22.559536 4.4760318,22.5585705 3.41524337,22.5482043 C3.20816834,22.5461717 3.15825847,22.6120784 3.1586659,22.8082743 C3.16487917,25.7466897 3.1642171,28.6850543 3.1652866,31.6234696 C3.16538846,31.9995498 3.16589774,31.9994482 2.7849021,31.9992957 C1.978654,31.9988892 1.1724059,31.9980762 0.366157799,31.9985335 C0.00196854003,31.9987368 0.00130647033,32 0.0012555419,31.6301264 C0.00069532908,27.8109893 0.000389758453,23.9919029 0,20.1727658 C0,18.7755627 0,17.3783087 0,15.9811056 L0.00120461346,15.9811056 Z" id="Fill-1" fill="#FFFFFF" mask="url(#mask-2)"></path>
                    </g>
                    <path d="M19.756939,8.79618181 C19.6543783,8.79618181 19.5565657,8.79613116 19.4587532,8.79618181 C17.7013763,8.79684021 15.9439493,8.79734667 14.1865724,8.79810636 C13.8036691,8.79830894 13.8039216,8.79861282 13.8044188,8.41051211 C13.8056683,7.58346206 13.8118659,6.75631072 13.8039216,5.92931131 C13.8019697,5.72282735 13.8627964,5.64660504 14.0738656,5.64705882 C16.6308363,5.65263192 19.187807,5.64903605 21.7447777,5.65202417 C22.4893425,5.65288515 22.8623496,6.02427266 22.8678975,6.79323169 C22.8780436,8.20255942 22.8891894,9.61244425 22.8615999,11.0213162 C22.8527033,11.4749022 23.0238878,11.8310453 23.2337574,12.215854 C24.9849367,10.7333427 26.7259199,9.25939061 28.4873953,7.76811757 C28.6828704,8.00043102 28.8682494,8.21668967 29.0492301,8.43664548 C29.4691193,8.94700576 29.8811615,9.46410196 30.3089976,9.96742244 C30.4383481,10.1196138 30.4313008,10.2064212 30.2800587,10.3327324 C29.3435174,11.1148088 28.4118242,11.903064 27.4814306,12.6927372 C26.6100643,13.4321696 25.7453955,14.1798573 24.8695809,14.9137692 C24.7347325,15.0267606 24.7338329,15.117417 24.8045558,15.2540601 C25.2366903,16.0890616 25.6646264,16.9262408 26.0956113,17.7618501 C26.8193342,19.164847 27.5435568,20.5674895 28.268929,21.9695242 C29.07577,23.5293213 29.8864095,25.0871433 30.6909514,26.6481053 C31.1100408,27.4613796 31.5198339,28.2796173 31.9330756,29.0960316 C31.9550672,29.139486 31.9700615,29.1864855 32,29.260682 C31.1058425,29.7354887 30.2194819,30.2061931 29.281941,30.7040438 C27.1530563,26.5786189 25.0335181,22.4715785 22.9140299,18.3644368 C22.8981359,18.3672223 22.8821421,18.3700585 22.8661982,18.3728947 C22.8661982,18.5331895 22.8661482,18.6934842 22.8661982,18.853779 C22.8678475,23.1242542 22.8694469,27.3948307 22.8710963,31.6653059 C22.8711963,31.998557 22.8709464,31.9995699 22.5362745,31.9997218 C21.7283839,32 20.9204434,32 20.1125528,31.9991647 C19.7625868,31.9987089 19.7584884,31.9973415 19.7583884,31.6308666 C19.7578886,28.8711632 19.7597379,26.1114091 19.759538,23.351655 C19.7591881,18.6423317 19.7578886,13.9330084 19.756989,9.2236345 C19.756939,9.09752583 19.756939,8.97141715 19.756939,8.79618181" id="Fill-3" fill="#FFFFFF"></path>
                    <path d="M14.8220883,30.745098 C14.0729303,30.5517036 13.3502544,30.3643497 12.6270845,30.1790092 C12.4523814,30.1342093 12.2776289,30.0848791 12.099912,30.0582509 C11.9193789,30.03122 11.8971458,29.9506306 11.9405745,29.7823543 C12.2200204,28.7004128 12.4913141,27.6163068 12.7623608,26.5321001 C13.144672,25.0025124 13.5223389,23.4717166 13.9061323,21.9425317 C14.1312799,21.0455279 14.367297,20.1513934 14.5930375,19.254591 C14.8211495,18.3483757 15.0402201,17.4397944 15.267838,16.5334784 C15.4423435,15.8387787 15.6239635,15.1459918 15.8107219,14.4201839 C15.6855246,14.4201839 15.5756435,14.4200832 15.4657624,14.4201839 C14.4944212,14.4212913 13.5229812,14.416912 12.5517388,14.4277344 C12.32086,14.430352 12.2384492,14.3657697 12.2429946,14.1161993 C12.2583108,13.2778381 12.2594471,12.4387218 12.2426982,11.6003606 C12.2376092,11.3456055 12.3234786,11.2951176 12.5518376,11.2960236 C14.4698659,11.3040272 16.387993,11.3074501 18.3060213,11.2941176 C18.5974237,11.292198 18.8565633,11.3212927 19.0871951,11.5075393 C19.4395162,11.7920435 19.5107611,12.1689663 19.4077475,12.5876687 C19.0709402,13.957487 18.7289945,15.3260469 18.3837385,16.6936504 C18.0221288,18.1261382 17.6498967,19.5558071 17.2905103,20.9888989 C16.9294441,22.4287359 16.5803344,23.8717944 16.222282,25.3124871 C16.0410572,26.0416172 15.8512356,26.7684319 15.6659595,27.4965049 C15.4085491,28.5080754 15.1520281,29.519797 14.8940248,30.5312165 C14.8779182,30.59449 14.8525724,30.655297 14.8220883,30.745098" id="Fill-5" fill="#FFFFFF"></path>
                    <path d="M15.6869015,0.000814852821 L16.6204717,0.000814852821 C19.6836254,0.000710642004 22.746779,-0.00335357987 25.809984,0.00769276677 C26.0741216,0.00857855871 26.3680414,0.0548481616 26.592281,0.181724832 C26.7649153,0.279422473 26.9467923,0.531768967 26.9566512,0.724194241 C26.997114,1.5185933 26.9735963,2.316275 26.9735963,3.13500729 C26.4656039,3.13500729 25.939434,3.13490308 25.4132642,3.13500729 C22.290238,3.13573677 19.1671604,3.13636203 16.0441342,3.1372549 C15.6831017,3.13740414 15.6857205,3.13813361 15.6862745,2.75713887 C15.6879799,1.84638843 15.6869015,0.935585884 15.6869015,0.000814852821" id="Fill-7" fill="#FFFFFF"></path>
                </g>
            </g>
        </g>
    </g>
</svg>