<?xml version="1.0" encoding="UTF-8"?>
<svg width="42px" height="42px" viewBox="0 0 42 42" version="1.1" xmlns="http://www.w3.org/2000/svg" xmlns:xlink="http://www.w3.org/1999/xlink">
    <title>icon-了解蚂蚁-视频播放</title>
    <g id="其他调整（未开发）" stroke="none" stroke-width="1" fill="none" fill-rule="evenodd">
        <g id="生活在蚂蚁-pc备份-8" transform="translate(-698.000000, -1108.000000)">
            <g id="编组-4" transform="translate(417.000000, 913.000000)">
                <g id="icon-了解蚂蚁-视频播放" transform="translate(282.000000, 196.000000)">
                    <circle id="椭圆形" stroke="#FFFFFF" cx="20" cy="20" r="20"></circle>
                    <path d="M21.8003267,16.3338779 L26.1518824,23.5864706 C26.4170873,24.0284789 26.2737599,24.6017884 25.8317517,24.8669934 C25.6866973,24.954026 25.5207167,25 25.3515556,25 L16.6484444,25 C16.1329786,25 15.715111,24.5821324 15.715111,24.0666667 C15.715111,23.8975057 15.761085,23.731525 15.8481176,23.5864706 L20.1996733,16.3338779 C20.4648782,15.8918696 21.0381878,15.7485422 21.480196,16.0137472 C21.6115623,16.092567 21.721507,16.2025116 21.8003267,16.3338779 Z" id="三角形" fill="#FFFFFF" transform="translate(21.000000, 20.000000) rotate(90.000000) translate(-21.000000, -20.000000) "></path>
                </g>
            </g>
        </g>
    </g>
</svg>