<?xml version="1.0" encoding="UTF-8"?>
<svg width="64px" height="64px" viewBox="0 0 64 64" version="1.1" xmlns="http://www.w3.org/2000/svg" xmlns:xlink="http://www.w3.org/1999/xlink">
    <title>Weibo</title>
    <g id="控件" stroke="none" stroke-width="1" fill="none" fill-rule="evenodd">
        <g id="mobile-foot" transform="translate(-136.000000, -958.000000)" fill="#FFFFFF" fill-rule="nonzero">
            <g id="Weibo" transform="translate(136.000000, 958.000000)">
                <g id="Oval">
                    <path d="M32,64 C14.3609756,64 0,49.6390244 0,32 C0,14.3609756 14.3609756,0 32,0 C49.6390244,0 64,14.3609756 64,32 C64,49.6390244 49.6390244,64 32,64 Z M32,1.56097561 C15.1414634,1.56097561 1.56097561,15.1414634 1.56097561,32 C1.56097561,48.8585366 15.1414634,62.4390244 32,62.4390244 C48.8585366,62.4390244 62.4390244,48.8585366 62.4390244,32 C62.4390244,15.1414634 48.8585366,1.56097561 32,1.56097561 Z" id="形状"></path>
                </g>
                <g id="编组" transform="translate(13.326562, 16.546341)">
                    <g id="形状">
                        <path d="M15.5514872,4.83902439 C12.8978287,4.68292683 6.81002379,6.55609756 1.03441404,16.0780488 C1.03441404,16.0780488 -3.18022011,23.7268293 5.40514574,28.2536585 C5.40514574,28.2536585 12.5856335,32.4682927 22.731975,29.502439 C22.731975,29.502439 33.034414,26.0682927 32.0978287,19.0439024 C32.0978287,19.0439024 31.3173409,16.0780488 27.727097,15.297561 C27.727097,15.297561 26.634414,15.1414634 27.2588043,14.0487805 C27.2588043,14.0487805 28.8197799,10.7707317 25.6978287,9.36585366 C25.6978287,9.36585366 22.8880726,8.74146341 19.4539262,10.4585366 C19.4539262,10.4585366 17.2685604,11.7073171 18.3612433,8.89756098 C18.2051457,8.74146341 18.6734384,5.15121951 15.5514872,4.83902439 L15.5514872,4.83902439 Z M25.8539262,20.2926829 C25.8539262,24.195122 20.8588043,28.4097561 14.7709994,28.4097561 C7.5905116,28.4097561 3.68807257,25.2878049 3.68807257,21.3853659 C3.68807257,17.4829268 9.30758477,13.7365854 15.5514872,13.7365854 C21.4831945,13.7365854 25.8539262,16.3902439 25.8539262,20.2926829 L25.8539262,20.2926829 Z"></path>
                        <path d="M19.6100238,21.697561 C19.4539262,24.5073171 16.9563653,26.6926829 13.834414,26.8487805 C9.93197501,27.004878 7.43441404,25.2878049 7.90270672,21.697561 C8.21490184,18.8878049 10.7124628,16.3902439 13.834414,16.3902439 C16.9563653,16.5463415 19.7661214,18.2634146 19.6100238,21.697561 L19.6100238,21.697561 Z M15.8636823,20.9170732 C15.8636823,20.4487805 15.5514872,20.1365854 15.0831945,20.1365854 C14.6149018,20.1365854 14.3027067,20.4487805 14.3027067,20.9170732 C14.3027067,21.3853659 14.6149018,21.697561 15.0831945,21.697561 C15.3953896,21.697561 15.8636823,21.3853659 15.8636823,20.9170732 L15.8636823,20.9170732 Z M13.834414,22.6341463 C13.834414,21.697561 12.8978287,20.7609756 11.8051457,20.9170732 C10.7124628,21.0731707 9.77587745,21.8536585 9.77587745,22.7902439 C9.77587745,23.7268293 10.7124628,24.5073171 11.6490482,24.5073171 C12.7417311,24.8195122 13.834414,23.7268293 13.834414,22.6341463 L13.834414,22.6341463 Z M25.5417311,3.74634146 C25.6978287,3.74634146 25.8539262,3.5902439 26.0100238,3.5902439 C26.1661214,3.5902439 26.3222189,3.5902439 26.634414,3.43414634 C26.0100238,3.43414634 26.4783165,3.43414634 26.634414,3.43414634 C26.7905116,3.43414634 26.9466092,3.43414634 27.1027067,3.43414634 L28.0392921,3.43414634 C28.1953896,3.43414634 28.3514872,3.43414634 28.5075848,3.43414634 C28.0392921,3.43414634 28.3514872,3.43414634 28.5075848,3.43414634 C28.6636823,3.43414634 28.6636823,3.43414634 28.8197799,3.43414634 C29.131975,3.43414634 29.6002677,3.5902439 29.9124628,3.74634146 C30.0685604,3.74634146 30.0685604,3.74634146 30.2246579,3.90243902 C29.9124628,3.74634146 30.2246579,3.90243902 30.2246579,3.90243902 C30.3807555,4.05853659 30.6929506,4.05853659 31.0051457,4.21463415 C31.1612433,4.37073171 31.4734384,4.52682927 31.629536,4.52682927 C31.7856335,4.52682927 31.7856335,4.68292683 31.9417311,4.68292683 C31.629536,4.52682927 31.9417311,4.68292683 31.9417311,4.68292683 C32.4100238,4.99512195 32.7222189,5.46341463 33.034414,5.77560976 C33.034414,5.77560976 33.3466092,6.08780488 33.034414,5.77560976 C33.034414,5.77560976 33.1905116,5.93170732 33.1905116,6.08780488 C33.3466092,6.24390244 33.3466092,6.4 33.5027067,6.55609756 C33.6588043,6.71219512 33.6588043,6.86829268 33.8149018,7.1804878 C33.9709994,7.49268293 33.6588043,6.86829268 33.8149018,7.1804878 C33.8149018,7.33658537 33.8149018,7.33658537 33.9709994,7.49268293 C34.127097,7.80487805 34.127097,8.27317073 34.2831945,8.58536585 C34.2831945,8.58536585 34.2831945,8.74146341 34.2831945,8.89756098 C34.2831945,8.42926829 34.2831945,8.74146341 34.2831945,8.89756098 C34.2831945,9.05365854 34.2831945,9.2097561 34.2831945,9.52195122 C34.2831945,9.83414634 34.2831945,10.1463415 34.2831945,10.4585366 C34.2831945,10.6146341 34.2831945,10.7707317 34.2831945,10.9268293 C34.2831945,10.302439 34.2831945,10.9268293 34.2831945,11.0829268 C34.2831945,11.5512195 34.127097,11.8634146 33.9709994,12.1756098 C33.9709994,12.3317073 33.6588043,12.9560976 33.9709994,12.3317073 C33.6588043,13.1121951 33.8149018,14.0487805 34.5953896,14.3609756 C35.2197799,14.6731707 36.3124628,14.5170732 36.6246579,13.7365854 C37.5612433,11.7073171 37.7173409,9.2097561 37.0929506,7.02439024 C36.0002677,3.12195122 32.0978287,0.312195122 28.0392921,0 C26.9466092,0 25.6978287,0 24.6051457,0.312195122 C23.8246579,0.624390244 23.3563653,1.40487805 23.5124628,2.18536585 C23.8246579,3.43414634 24.7612433,4.05853659 25.5417311,3.74634146 L25.5417311,3.74634146 Z"></path>
                    </g>
                    <path d="M26.3222189,7.96097561 C26.4783165,7.96097561 26.4783165,7.96097561 26.634414,7.96097561 C26.9466092,7.96097561 26.4783165,7.96097561 26.7905116,7.96097561 C26.9466092,7.96097561 27.1027067,7.96097561 27.2588043,7.96097561 C27.8831945,7.96097561 28.5075848,8.11707317 28.9758775,8.58536585 C28.9758775,8.58536585 29.131975,8.74146341 29.2880726,8.74146341 C29.2880726,8.74146341 29.4441701,9.05365854 29.4441701,8.89756098 C29.4441701,8.89756098 29.6002677,9.05365854 29.6002677,9.2097561 C29.6002677,9.2097561 29.6002677,9.36585366 29.6002677,9.36585366 C29.6002677,9.36585366 29.6002677,9.36585366 29.6002677,9.36585366 C29.6002677,9.52195122 29.7563653,9.67804878 29.7563653,9.9902439 C29.7563653,10.302439 29.7563653,9.83414634 29.7563653,9.9902439 L29.7563653,10.7707317 C29.7563653,10.7707317 29.7563653,10.9268293 29.7563653,10.9268293 C29.7563653,10.6146341 29.7563653,10.9268293 29.7563653,10.9268293 C29.7563653,11.0829268 29.7563653,11.0829268 29.7563653,11.2390244 C29.6002677,11.7073171 29.9124628,12.3317073 30.5368531,12.4878049 C31.1612433,12.6439024 31.629536,12.3317073 31.7856335,11.7073171 C32.2539262,9.9902439 31.9417311,8.11707317 30.5368531,6.86829268 C29.2880726,5.77560976 27.4149018,5.46341463 25.8539262,5.93170732 C24.6051457,6.4 25.0734384,8.27317073 26.3222189,7.96097561 L26.3222189,7.96097561 Z" id="路径"></path>
                </g>
            </g>
        </g>
    </g>
</svg>